{"title":"Cemetery Gates 2006 DVDRip x264 AC3-OFFLiNE","uid":8248872,"size":1553154489,"categoryP":"video","categoryS":"movies","magnet":"?xt=urn:btih:9a62006f73504dd17478d75bd1374aa58fddab1b&amp;dn=Cemetery+Gates+2006+DVDRip+x264+AC3-OFFLiNE&amp;tr=udp%3A%2F%2Ftracker.openbittorrent.com%3A80&amp;tr=udp%3A%2F%2Fopen.demonii.com%3A1337&amp;tr=udp%3A%2F%2Ftracker.coppersurfer.tk%3A6969&amp;tr=udp%3A%2F%2Fexodus.desync.com%3A6969","seeders":0,"leechers":1,"uploader":"sceneline","files":5,"time":1363118608,"description":"- &lt;a href=&quot;\nhttp://www.Speed.Cd&quot; rel=&quot;nofollow&quot; target=&quot;_NEW&quot;&gt;\nhttp://www.Speed.Cd&lt;/a&gt;\n &lt;a href=&quot;\nhttp://www.Speed.Cd&quot; rel=&quot;nofollow&quot; target=&quot;_NEW&quot;&gt;\nhttp://www.Speed.Cd&lt;/a&gt;       the fast  and The Hottest Private Tracker on the net\n\nPlease Seed back to make the speed Faster!!\n ............ NFO .............\n-[IMG]http://i.imgur.com/lTuFsgm.jpg[/IMG]\n\nSource: RETAIL\n &lt;a href=&quot;\nhttp://www.imdb.com/title/tt0402904/&quot; rel=&quot;nofollow&quot; target=&quot;_NEW&quot;&gt;\nhttp://www.imdb.com/title/tt0402904/&lt;/a&gt;\n\nA genetically mutated Tasmanian Devil is &quot;liberated&quot; by two eco-activists and set loose in a woodland cemetery.\n\nGeneral\nComplete name                            : Cemetery Gates 2006 DVDRip x264 AC3-OFFLiNE.mkv\nFormat                                   : Matroska\nFormat version                           : Version 4 / Version 2\nFile size                                : 1.43 GiB\nDuration                                 : 1h 28mn\nOverall bit rate mode                    : Variable\nOverall bit rate                         : 2 318 Kbps\nEncoded date                             : UTC 2013-03-12 18:25:13\nWriting application                      : mkvmerge v6.1.0 ('Old Devil') built on Mar  2 2013 14:32:37\nWriting library                          : libebml v1.3.0 + libmatroska v1.4.0\n\nVideo\nID                                       : 1\nFormat                                   : AVC\nFormat/Info                              : Advanced Video Codec\nFormat profile                           : &lt;a class=&quot;__cf_email__&quot; href=&quot;/cdn-cgi/l/email-protection&quot; data-cfemail=&quot;5d15343a351d1169736c&quot;&gt;[email&amp;#160;protected]&lt;/a&gt;&lt;script cf-hash='f9e31' type=&quot;text/javascript&quot;&gt;\n/* &lt;![CDATA[ */!function(){try{var t=&quot;currentScript&quot;in document?document.currentScript:function(){for(var t=document.getElementsByTagName(&quot;script&quot;),e=t.length;e--;)if(t[e].getAttribute(&quot;cf-hash&quot;))return t[e]}();if(t&amp;&amp;t.previousSibling){var e,r,n,i,c=t.previousSibling,a=c.getAttribute(&quot;data-cfemail&quot;);if(a){for(e=&quot;&quot;,r=parseInt(a.substr(0,2),16),n=2;a.length-n;n+=2)i=parseInt(a.substr(n,2),16)^r,e+=String.fromCharCode(i);e=document.createTextNode(e),c.parentNode.replaceChild(e,c)}}}catch(u){}}();/* ]]&gt; */&lt;/script&gt;\nFormat settings, CABAC                   : Yes\nFormat settings, ReFrames                : 3 frames\nCodec ID                                 : V_MPEG4/ISO/AVC\nDuration                                 : 1h 28mn\nBit rate mode                            : Variable\nBit rate                                 : 1 868 Kbps\nMaximum bit rate                         : 40.0 Mbps\nWidth                                    : 720 pixels\nHeight                                   : 400 pixels\nDisplay aspect ratio                     : 16:9\nFrame rate mode                          : Constant\nFrame rate                               : 25.000 fps\nColor space                              : YUV\nChroma subsampling                       : 4:2:0\nBit depth                                : 8 bits\nScan type                                : Progressive\nBits/(Pixel*Frame)                       : 0.259\nStream size                              : 1.12 GiB (79%)\nWriting library                          : x264 core 130 r2273 b3065e6\n\nAudio\nID                                       : 2\nFormat                                   : AC-3\nFormat/Info                              : Audio Coding 3\nMode extension                           : CM (complete main)\nFormat settings, Endianness              : Big\nCodec ID                                 : A_AC3\nDuration                                 : 1h 28mn\nBit rate mode                            : Constant\nBit rate                                 : 448 Kbps\nChannel(s)                               : 6 channels\nChannel positions                        : Front: L C R, Side: L R, LFE\nSampling rate                            : 48.0 KHz\nBit depth                                : 16 bits\nCompression mode                         : Lossy\nStream size                              : 282 MiB (19%)\nLanguage                                 : English\nDefault                                  : Yes\nForced                                   : No\n\n[IMG]http://i.imgur.com/aNiaI0K.png[/IMG]\n[IMG]http://i.imgur.com/k3RLkWk.png[/IMG]\n[IMG]http://i.imgur.com/Q1ffe5z.png[/IMG]\n[IMG]http://i.imgur.com/CgCUM4x.png[/IMG]\n[IMG]http://i.imgur.com/57Mobi9.png[/IMG]\n\nGreets: To Our Friends","torrent":{"xt":"urn:btih:9a62006f73504dd17478d75bd1374aa58fddab1b","amp;dn":"Cemetery+Gates+2006+DVDRip+x264+AC3-OFFLiNE","amp;tr":["udp%3A%2F%2Ftracker.openbittorrent.com%3A80","udp%3A%2F%2Fopen.demonii.com%3A1337","udp%3A%2F%2Ftracker.coppersurfer.tk%3A6969","udp%3A%2F%2Fexodus.desync.com%3A6969"],"infoHash":"9a62006f73504dd17478d75bd1374aa58fddab1b","infoHashBuffer":{"type":"Buffer","data":[154,98,0,111,115,80,77,209,116,120,215,91,209,55,74,165,143,221,171,27]},"announce":[],"urlList":[]}}